HIERARCHY
ROOT Hips
{
	OFFSET 0.000000 0.000000 0.000000 
	CHANNELS 6 Xposition Yposition Zposition Zrotation Yrotation Xrotation
	JOINT LeftUpLeg
	{
		OFFSET 1.363060 -1.794630 0.839290 
		CHANNELS 3 Zrotation Yrotation Xrotation
		JOINT LeftLeg
		{
			OFFSET 2.448110 -6.726130 0.000000 
			CHANNELS 3 Zrotation Yrotation Xrotation
			JOINT LeftFoot
			{
				OFFSET 2.562200 -7.039590 0.000000 
				CHANNELS 3 Zrotation Yrotation Xrotation
				JOINT LeftToeBase
				{
					OFFSET 0.157640 -0.433110 2.322550 
					CHANNELS 3 Zrotation Yrotation Xrotation
					End Site
					{
						OFFSET 0.000000 0.000000 0.000000 
					}
				}
			}
		}
	}
	JOINT RightUpLeg
	{
		OFFSET -1.305520 -1.794630 0.839290 
		CHANNELS 3 Zrotation Yrotation Xrotation
		JOINT RightLeg
		{
			OFFSET -2.542530 -6.985550 0.000000 
			CHANNELS 3 Zrotation Yrotation Xrotation
			JOINT RightFoot
			{
				OFFSET -2.568260 -7.056230 0.000000 
				CHANNELS 3 Zrotation Yrotation Xrotation
				JOINT RightToeBase
				{
					OFFSET -0.164730 -0.452590 2.363150 
					CHANNELS 3 Zrotation Yrotation Xrotation
					End Site
					{
						OFFSET 0.000000 0.000000 0.000000 
					}
				}
			}
		}
	}
	JOINT Spine
	{
		OFFSET 0.028270 2.035590 -0.193380 
		CHANNELS 3 Zrotation Yrotation Xrotation
		JOINT Spine1
		{
			OFFSET 0.056720 2.048850 -0.042750 
			CHANNELS 3 Zrotation Yrotation Xrotation
			JOINT Neck1
			{
				OFFSET -0.054170 1.746240 0.172020 
				CHANNELS 3 Zrotation Yrotation Xrotation
				JOINT Head
				{
					OFFSET 0.104070 1.761360 -0.123970 
					CHANNELS 3 Zrotation Yrotation Xrotation
					End Site
					{
						OFFSET 0.000000 0.000000 0.000000 
					}
				}
			}
			JOINT LeftArm
			{
				OFFSET 3.362410 1.200890 -0.311210 
				CHANNELS 3 Zrotation Yrotation Xrotation
				JOINT LeftForeArm
				{
					OFFSET 4.983000 -0.000000 -0.000000 
					CHANNELS 3 Zrotation Yrotation Xrotation
					JOINT LeftHand
					{
						OFFSET 3.483560 -0.000000 -0.000000 
						CHANNELS 3 Zrotation Yrotation Xrotation
						JOINT LeftHandIndex1
						{
							OFFSET 0.715260 -0.000000 -0.000000 
							CHANNELS 3 Zrotation Yrotation Xrotation
							End Site
							{
								OFFSET 0.000000 0.000000 0.000000 
							}
						}
					}
				}
			}
			JOINT RightArm
			{
				OFFSET -3.136600 1.374050 -0.404650 
				CHANNELS 3 Zrotation Yrotation Xrotation
				JOINT RightForeArm
				{
					OFFSET -5.241900 -0.000000 -0.000000 
					CHANNELS 3 Zrotation Yrotation Xrotation
					JOINT RightHand
					{
						OFFSET -3.444170 -0.000000 -0.000000 
						CHANNELS 3 Zrotation Yrotation Xrotation
						JOINT RightHandIndex1
						{
							OFFSET -0.622530 -0.000000 -0.000000 
							CHANNELS 3 Zrotation Yrotation Xrotation
							End Site
							{
								OFFSET 0.000000 0.000000 0.000000 
							}
						}
					}
				}
			}
		}
	}
}
MOTION
Frames: 7
Frame Time: 0.041667
12.130706 15.688686 22.676937 -174.245097 -7.126431 -173.469489 -16.633629 -12.103687 -37.094983 9.553056 21.218898 65.186850 -0.042666 13.087816 -29.194128 5.303500 -13.717600 -42.117800 19.996672 19.847359 -41.372969 -8.116652 -21.528698 61.505670 0.792474 -10.388642 -19.524483 -1.348100 7.350700 -20.758500 2.662466 1.999362 10.609704 -4.163264 1.249240 -19.767333 17.020977 -0.130300 -8.823624 3.918700 -1.386200 -1.198700 -42.549864 -20.636463 7.176449 23.895136 -24.408637 -5.016556 1.148593 0.052568 16.137809 -7.125000 0.000000 0.000000 37.253224 25.163915 17.251760 -38.085068 41.017177 -14.244771 0.558856 -0.834141 -1.828543 7.125000 0.000000 0.000000 
12.096319 15.703390 22.727186 -174.363829 -6.670685 -172.973291 -16.846912 -12.329571 -37.452718 9.416537 21.231167 64.853090 -0.139957 13.289204 -29.041901 5.133300 -13.532400 -41.395600 19.422956 20.379190 -41.947267 -8.008622 -21.590485 61.183341 0.810458 -10.339686 -19.252244 -1.277200 7.162300 -20.197100 2.863176 1.647547 9.988078 -3.825378 1.130510 -19.880440 16.601480 0.372227 -8.843740 3.655100 -1.162800 -1.311000 -41.244475 -20.777711 7.565686 24.250281 -24.877295 -5.123080 1.090314 0.096827 14.161272 -7.125000 0.000000 0.000000 35.850401 25.285815 16.175461 -37.629444 40.761106 -13.943634 0.548528 -0.864776 -2.599770 7.125000 0.000000 0.000000 
12.059616 15.719021 22.770720 -174.512219 -6.188818 -172.651129 -17.089038 -12.491856 -37.655444 9.271330 21.218528 64.508092 -0.256319 13.613508 -28.980597 4.996200 -13.379500 -40.806300 18.918304 20.771875 -42.280841 -7.877791 -21.591835 60.783689 0.797487 -10.182611 -19.025629 -1.201200 6.953700 -19.578200 2.911149 1.694329 10.157509 -3.857263 1.149139 -19.850585 16.450866 0.343633 -8.766566 3.619000 -1.168400 -1.228500 -40.098048 -22.168057 7.579723 24.344294 -25.028164 -5.144921 1.050956 0.111028 13.585579 -7.125000 0.000000 0.000000 33.972050 24.956833 14.058727 -37.013273 40.364276 -13.497585 0.553774 -0.909998 -2.889225 7.125000 0.000000 0.000000 
12.024419 15.735925 22.804760 -174.645473 -5.632981 -172.559051 -17.380290 -12.416501 -37.628441 9.108954 21.150506 64.117397 -0.359246 13.933967 -28.995421 4.916000 -13.288600 -40.458700 18.495300 21.305546 -42.275210 -7.703741 -21.537805 60.259061 0.859447 -10.282038 -18.707221 -1.218000 7.000500 -19.716800 2.959883 1.751786 10.744542 -3.866890 1.191800 -19.683242 16.262084 0.444338 -8.994028 3.580300 -1.141000 -1.269300 -38.955340 -23.319338 7.391082 24.581416 -25.342679 -5.227004 1.015552 0.107008 13.290566 -7.125000 0.000000 0.000000 32.205816 24.676168 11.871035 -36.290290 39.844863 -12.987813 0.568372 -0.957085 -2.683199 7.125000 0.000000 0.000000 
11.990494 15.763133 22.834632 -174.690486 -4.995457 -172.613363 -17.654466 -12.105404 -37.438156 8.905708 21.024466 63.605989 -0.528145 14.368091 -28.892291 4.948000 -13.325000 -40.597500 18.213338 21.871597 -42.054990 -7.477187 -21.433765 59.586378 0.924658 -10.370032 -18.327185 -1.264600 7.128200 -20.095600 3.223925 1.740668 11.320587 -3.807071 1.219349 -19.552902 16.024440 0.635886 -9.150551 3.506800 -1.061500 -1.321300 -37.954088 -23.944534 7.278811 24.892072 -25.742643 -5.345689 0.981953 0.105402 13.128612 -7.125000 0.000000 0.000000 30.603480 24.434239 10.133410 -35.696322 39.411014 -12.580322 0.590064 -0.996727 -2.525993 7.125000 0.000000 0.000000 
11.957728 15.811067 22.858599 -174.666334 -4.484870 -172.747033 -17.859159 -11.779906 -37.045637 8.653977 20.846621 62.937206 -0.654952 14.621186 -28.751516 4.929800 -13.304300 -40.518400 18.106223 22.227812 -41.592226 -7.199733 -21.259208 58.764330 0.966612 -10.370967 -17.971501 -1.287900 7.191000 -20.282500 3.672958 1.593897 11.674235 -3.675818 1.189888 -19.544505 15.798321 0.865742 -9.062547 3.405600 -0.940500 -1.315300 -37.120419 -24.333338 7.152791 25.058903 -25.964261 -5.399059 0.952473 0.104466 13.244388 -7.125000 0.000000 0.000000 29.231846 24.314711 8.873724 -35.138264 38.995366 -12.209053 0.608396 -1.029207 -2.390283 7.125000 0.000000 0.000000 
11.926467 15.877526 22.873419 -174.620406 -4.112712 -172.939848 -18.006261 -11.415783 -36.467684 8.369514 20.624836 62.146617 -0.640376 14.440308 -28.664223 4.729600 -13.072700 -39.641300 18.133478 22.471191 -40.857860 -6.890509 -21.023825 57.845127 1.031469 -10.481087 -17.667416 -1.349600 7.354600 -20.770200 4.032637 1.457874 11.670222 -3.580198 1.145195 -19.620475 15.677497 1.076298 -8.952789 3.324800 -0.826400 -1.348700 -36.446725 -24.614902 7.301479 25.118783 -26.059298 -5.409950 0.924898 0.104593 13.333026 -7.125000 0.000000 0.000000 28.221508 23.962364 8.085469 -34.628555 38.608940 -11.877759 0.613662 -1.064575 -2.121181 7.125000 0.000000 0.000000 
